<?xml version="1.0" standalone="no"?>
<!DOCTYPE svg PUBLIC "-//W3C//DTD SVG 20010904//EN"
 "http://www.w3.org/TR/2001/REC-SVG-20010904/DTD/svg10.dtd">
<svg version="1.0" xmlns="http://www.w3.org/2000/svg"
 width="236.000000pt" height="236.000000pt" viewBox="0 0 236.000000 236.000000"
 preserveAspectRatio="xMidYMid meet">
<metadata>
Created by potrace 1.14, written by Peter Selinger 2001-2017
</metadata>
<g transform="translate(0.000000,236.000000) scale(0.100000,-0.100000)"
fill="#000000" stroke="none">
<path d="M575 2345 c-49 -6 -114 -20 -144 -30 -165 -54 -318 -203 -379 -365
-43 -118 -47 -179 -47 -795 0 -480 2 -561 17 -634 18 -89 69 -208 109 -257 45
-55 151 -154 165 -154 3 0 18 -8 32 -19 46 -32 144 -62 242 -76 113 -15 1069
-18 1195 -3 167 19 288 73 393 176 109 107 161 211 185 372 21 141 17 1184 -6
1285 -30 139 -83 234 -180 327 -112 109 -227 159 -402 177 -138 13 -1073 11
-1180 -4z"/>
</g>
</svg>
